<svg width="33" height="33" viewBox="0 0 33 33" fill="none" xmlns="http://www.w3.org/2000/svg">
<g clip-path="url(#clip0_62_6469)">
<path d="M26.9377 7.11304H5.73507C5.24957 7.11304 4.8551 7.50112 4.8551 7.97877V22.3056C4.8551 22.7832 5.24957 23.1713 5.73507 23.1713H26.9377C27.4232 23.1713 27.8177 22.7832 27.8177 22.3056V7.97877C27.8177 7.50112 27.4258 7.11304 26.9377 7.11304Z" fill="#B7D5E5"/>
<path d="M26.6216 21.644H6.05115L6.2939 8.64062H26.3789L26.6216 21.644Z" fill="url(#paint0_radial_62_6469)"/>
<path d="M30.7535 31.749H2.05343C1.9447 31.749 1.84355 31.7415 1.75 31.7266C1.02175 31.6171 0.685437 30.6867 1.11783 30.0499L1.21645 29.9031H31.4565L31.5576 30.0523C32.0279 30.7439 31.588 31.734 30.7889 31.7465C30.7788 31.749 30.7662 31.749 30.7535 31.749Z" fill="#2F7889"/>
<path d="M27.1502 23.4375H5.3432C5.02206 23.4375 4.70093 23.6291 4.52139 23.9326L0.981293 30.2713C0.832103 30.4902 0.978765 30.7987 1.23163 30.7987H31.4388C31.6916 30.7987 31.8383 30.4902 31.6891 30.2713L27.9695 23.8952C27.7925 23.6266 27.4713 23.4375 27.1502 23.4375Z" fill="#EEEEEE"/>
<path d="M21.9715 29.6842H10.7039L11.4245 27.699H21.3039L21.9715 29.6842Z" fill="#B7D5E5"/>
<path opacity="0.57" d="M18.5149 24.5397L18.4466 23.9924H17.5768L17.6096 24.5397H18.5149ZM17.1115 24.5397L17.0761 23.9924H16.2037V24.5397H17.1115ZM23.8048 24.5397L23.6 23.9924H22.7757L22.9476 24.5397H23.8048ZM22.4773 24.5397L22.3053 23.9924H21.4658L21.6024 24.5397H22.4773ZM21.1674 24.5397L21.0309 23.9924H20.1787L20.2824 24.5397H21.1674ZM25.9542 24.5397L25.7139 23.9924H24.0172L24.2246 24.5397H25.9542ZM19.759 24.5397L19.6553 23.9924H18.793L18.8638 24.5397H19.759ZM8.67089 24.5397L8.84284 23.9924H8.0185L7.81368 24.5397H8.67089ZM12.9064 24.5397L12.9746 23.9924H12.1124L12.0112 24.5397H12.9064ZM10.0844 24.5397L10.2209 23.9924H9.38144L9.21202 24.5397H10.0844ZM7.25738 24.5397L7.4622 23.9924H6.65809L6.41787 24.5397H7.25738ZM11.4954 24.5397L11.5991 23.9924H10.7469L10.6104 24.5397H11.4954ZM14.3148 24.5397L14.3502 23.9924H13.4804L13.4121 24.5397H14.3148ZM15.7233 24.5397V23.9924H14.8509L14.8155 24.5397H15.7233ZM21.3192 26.7513H11.3512L11.1616 27.2986H21.5493L21.3192 26.7513ZM25.9643 27.2986L25.6583 26.7513H27.312L27.5523 27.2986H25.9643ZM22.0702 27.2986L21.8603 26.7513H23.4508L23.6935 27.2986H22.0702ZM24.2549 27.2986L24.0122 26.7513H25.102L25.3802 27.2986H24.2549ZM6.62522 27.2986L6.93118 26.7513H5.27745L5.03723 27.2986H6.62522ZM10.5193 27.2986L10.7292 26.7513H9.13869L8.89594 27.2986H10.5193ZM8.33205 27.2986L8.57733 26.7513H7.48749L7.20681 27.2986H8.33205ZM7.64679 25.4527L7.85414 24.9079H6.16753L5.92731 25.4527H7.64679ZM24.9022 25.4527L24.6974 24.9079H26.3815L26.6217 25.4527H24.9022ZM24.4724 25.4527L24.2296 24.9079H23.2561L23.4634 25.4527H24.4724ZM21.9387 25.4527L21.7743 24.9079H22.7478L22.9451 25.4527H21.9387ZM20.4114 25.4527L20.2925 24.9079H21.2661L21.4178 25.4527H20.4114ZM18.8841 25.4527L18.8133 24.9079H19.7843L19.893 25.4527H18.8841ZM17.3593 25.4527L17.3315 24.9079H18.305L18.3657 25.4527H17.3593ZM15.832 25.4527L15.8497 24.9079H16.8232L16.8384 25.4527H15.832ZM14.3047 25.4527L14.3679 24.9079H15.3414L15.3136 25.4527H14.3047ZM12.7799 25.4527L12.8861 24.9079H13.8597L13.7863 25.4527H12.7799ZM11.2526 25.4527L11.4044 24.9079H12.3779L12.259 25.4527H11.2526ZM9.72533 25.4527L9.92257 24.9079H10.8961L10.7343 25.4527H9.72533ZM8.20056 25.4527L8.44078 24.9079H9.41431L9.20696 25.4527H8.20056ZM7.64426 26.3757L7.84908 25.8284H5.63652L5.3963 26.3757H7.64426ZM24.3763 26.3757L24.1816 25.8284H23.1271L23.289 26.3757H24.3763ZM21.6099 26.3757L21.4886 25.8284H22.5405L22.6973 26.3757H21.6099ZM19.9284 26.3757L19.8475 25.8284H20.9019L21.0157 26.3757H19.9284ZM18.2494 26.3757L18.2064 25.8284H19.2608L19.3367 26.3757H18.2494ZM16.5704 26.3757L16.5678 25.8284H17.6198L17.6577 26.3757H16.5704ZM14.8913 26.3757L14.9267 25.8284H15.9812L15.9787 26.3757H14.8913ZM13.2098 26.3757L13.2857 25.8284H14.3401L14.2971 26.3757H13.2098ZM11.5308 26.3757L11.6471 25.8284H12.699L12.6181 26.3757H11.5308ZM9.85177 26.3757L10.006 25.8284H11.0605L10.9391 26.3757H9.85177ZM8.17022 26.3757L8.36492 25.8284H9.41937L9.26006 26.3757H8.17022ZM24.7809 26.3757L24.5735 25.8284H26.7861L27.0263 26.3757H24.7809Z" fill="#69A1BA"/>
<path d="M31.6739 30.2713L28.0479 23.9326C27.8683 23.6664 27.5472 23.4749 27.2261 23.4749C27.2261 23.4749 27.5346 23.7485 27.6281 23.8804L30.8117 29.7489C30.9533 30.0026 30.7662 30.3111 30.4728 30.3111H2.147C1.8562 30.3111 1.66908 30.0051 1.80563 29.7539L4.82736 23.9873C4.91586 23.8381 5.30274 23.4923 5.30274 23.4923H5.18895C4.86782 23.4923 4.54668 23.6838 4.36714 23.9873L0.963593 30.2713C0.814403 30.4902 0.961064 30.7987 1.21393 30.7987H31.4211C31.6765 30.7987 31.8231 30.4902 31.6739 30.2713Z" fill="#B7D5E5"/>
<path d="M6.70105 7.91675H10.0414" stroke="#EEEEEE" stroke-width="2.936" stroke-miterlimit="10" stroke-linecap="round"/>
<path d="M27.7899 8.43662C27.7899 8.1779 27.5345 8.15799 27.5345 8.46398V22.3455C27.5345 22.6788 27.2589 22.95 26.92 22.95H5.71737C5.37854 22.95 5.10291 22.6788 5.10291 22.3455V8.46398C5.10291 8.15799 4.84752 8.1779 4.84752 8.43662L4.6073 22.3455C4.6073 22.9475 4.92085 23.4376 5.71737 23.4376H26.92C27.6104 23.4376 28.0301 22.9475 28.0301 22.3455L27.7899 8.43662Z" fill="#75A7BC"/>
</g>
<defs>
<radialGradient id="paint0_radial_62_6469" cx="0" cy="0" r="1" gradientUnits="userSpaceOnUse" gradientTransform="translate(12.3748 1.92425) scale(19.0824 20.3562)">
<stop stop-color="#2F7889"/>
<stop offset="1" stop-color="#424242"/>
</radialGradient>
<clipPath id="clip0_62_6469">
<rect width="32.3666" height="31.8429" fill="white" transform="translate(0.134155 0.946045)"/>
</clipPath>
</defs>
</svg>
