<svg width="74" height="74" viewBox="0 0 74 74" fill="none" xmlns="http://www.w3.org/2000/svg">
<path d="M50.5281 71.6875H23.4719C20.7547 71.6875 18.5 69.4906 18.5 66.7156V7.28438C18.5 4.56719 20.7547 2.3125 23.4719 2.3125H50.5281C53.2453 2.3125 55.5 4.50938 55.5 7.28438V66.7734C55.5 69.4906 53.2453 71.6875 50.5281 71.6875Z" fill="#424242"/>
<path d="M50.164 69.4385H23.0846C21.8416 69.4385 20.8357 68.4326 20.8357 67.1896V11.3601C20.8357 10.1229 21.8416 9.11694 23.0788 9.11694H50.9155C52.1585 9.11694 53.1644 10.1229 53.1644 11.3658V66.8254C53.1644 67.363 52.3551 69.4385 50.164 69.4385Z" fill="black"/>
<path d="M42.5789 6.70049H31.4789C31.0742 6.70049 30.7852 6.35361 30.7852 6.00674C30.7852 5.65986 31.132 5.31299 31.4789 5.31299H42.5211C42.9258 5.31299 43.2148 5.65986 43.2148 6.00674C43.2148 6.35361 42.9258 6.70049 42.5789 6.70049Z" fill="#212121"/>
<path d="M50.5281 3.46875C52.6325 3.46875 54.3438 5.18 54.3438 7.28438V66.7734C54.3438 68.8431 52.6325 70.5312 50.5281 70.5312H23.4719C21.3675 70.5312 19.6562 68.82 19.6562 66.7156V7.28438C19.6562 5.21469 21.4022 3.46875 23.4719 3.46875H50.5281ZM50.5281 2.3125H23.4719C20.7547 2.3125 18.5 4.56719 18.5 7.28438V66.7156C18.5 69.4906 20.7547 71.6875 23.4719 71.6875H50.5281C53.2453 71.6875 55.5 69.4906 55.5 66.7734V7.28438C55.5 4.50938 53.2453 2.3125 50.5281 2.3125Z" fill="#757575"/>
<path d="M27.9525 17.3206H24.2756C23.8535 17.3206 23.5125 16.9795 23.5125 16.5574V12.8806C23.5125 12.4585 23.8535 12.1174 24.2756 12.1174H27.9525C28.3745 12.1174 28.7156 12.4585 28.7156 12.8806V16.5574C28.7156 16.9795 28.3745 17.3206 27.9525 17.3206Z" fill="#EAB56E"/>
<path d="M35.2078 17.3206H31.5309C31.1089 17.3206 30.7678 16.9795 30.7678 16.5574V12.8806C30.7678 12.4585 31.1089 12.1174 31.5309 12.1174H35.2078C35.6299 12.1174 35.9709 12.4585 35.9709 12.8806V16.5574C35.9709 16.9795 35.6299 17.3206 35.2078 17.3206Z" fill="#FB8C00"/>
<path d="M42.4633 17.3206H38.7922C38.3701 17.3206 38.0291 16.9795 38.0291 16.5574V12.8806C38.0291 12.4585 38.3701 12.1174 38.7922 12.1174H42.4691C42.8911 12.1174 43.2322 12.4585 43.2322 12.8806V16.5574C43.2322 16.9795 42.8911 17.3206 42.4633 17.3206Z" fill="#FF80AB"/>
<path d="M49.7244 17.3206H46.0475C45.6255 17.3206 45.2844 16.9795 45.2844 16.5574V12.8806C45.2844 12.4585 45.6255 12.1174 46.0475 12.1174H49.7244C50.1465 12.1174 50.4875 12.4585 50.4875 12.8806V16.5574C50.4875 16.9795 50.1465 17.3206 49.7244 17.3206Z" fill="#0288D1"/>
<path d="M27.9525 25.5068H24.2756C23.8535 25.5068 23.5125 25.1657 23.5125 24.7437V21.0668C23.5125 20.6448 23.8535 20.3037 24.2756 20.3037H27.9525C28.3745 20.3037 28.7156 20.6448 28.7156 21.0668V24.7437C28.7156 25.1657 28.3745 25.5068 27.9525 25.5068Z" fill="#00BFA5"/>
<path d="M35.2078 25.5068H31.5309C31.1089 25.5068 30.7678 25.1657 30.7678 24.7437V21.0668C30.7678 20.6448 31.1089 20.3037 31.5309 20.3037H35.2078C35.6299 20.3037 35.9709 20.6448 35.9709 21.0668V24.7437C35.9709 25.1657 35.6299 25.5068 35.2078 25.5068Z" fill="#81D4FA"/>
<path d="M42.4633 25.5068H38.7922C38.3701 25.5068 38.0291 25.1657 38.0291 24.7437V21.0668C38.0291 20.6448 38.3701 20.3037 38.7922 20.3037H42.4691C42.8911 20.3037 43.2322 20.6448 43.2322 21.0668V24.7437C43.2322 25.1657 42.8911 25.5068 42.4633 25.5068Z" fill="#FB8C00"/>
<path d="M49.7244 25.5068H46.0475C45.6255 25.5068 45.2844 25.1657 45.2844 24.7437V21.0668C45.2844 20.6448 45.6255 20.3037 46.0475 20.3037H49.7244C50.1465 20.3037 50.4875 20.6448 50.4875 21.0668V24.7437C50.4875 25.1657 50.1465 25.5068 49.7244 25.5068Z" fill="#EAB56E"/>
<path d="M27.9525 33.6931H24.2756C23.8535 33.6931 23.5125 33.352 23.5125 32.93V29.2531C23.5125 28.8311 23.8535 28.49 24.2756 28.49H27.9525C28.3745 28.49 28.7156 28.8311 28.7156 29.2531V32.93C28.7156 33.352 28.3745 33.6931 27.9525 33.6931Z" fill="#FB8C00"/>
<path d="M35.2078 33.6931H31.5309C31.1089 33.6931 30.7678 33.352 30.7678 32.93V29.2531C30.7678 28.8311 31.1089 28.49 31.5309 28.49H35.2078C35.6299 28.49 35.9709 28.8311 35.9709 29.2531V32.93C35.9709 33.352 35.6299 33.6931 35.2078 33.6931Z" fill="#FF80AB"/>
<path d="M42.4633 33.6931H38.7922C38.3701 33.6931 38.0291 33.352 38.0291 32.93V29.2531C38.0291 28.8311 38.3701 28.49 38.7922 28.49H42.4691C42.8911 28.49 43.2322 28.8311 43.2322 29.2531V32.93C43.2322 33.352 42.8911 33.6931 42.4633 33.6931Z" fill="#00BFA5"/>
<path d="M49.7246 33.6931H46.0478C45.6257 33.6931 45.2846 33.352 45.2846 32.93V29.2531C45.2846 28.8311 45.6257 28.49 46.0478 28.49H49.7246C50.1467 28.49 50.4878 28.8311 50.4878 29.2531V32.93C50.4878 33.352 50.1467 33.6931 49.7246 33.6931ZM27.9525 41.8794H24.2756C23.8535 41.8794 23.5125 41.5383 23.5125 41.1162V37.4394C23.5125 37.0173 23.8535 36.6762 24.2756 36.6762H27.9525C28.3745 36.6762 28.7156 37.0173 28.7156 37.4394V41.1162C28.7156 41.5383 28.3745 41.8794 27.9525 41.8794Z" fill="#0288D1"/>
<path d="M35.2079 41.8794H31.531C31.109 41.8794 30.7679 41.5383 30.7679 41.1163V37.4394C30.7679 37.0174 31.109 36.6763 31.531 36.6763H35.2079C35.63 36.6763 35.971 37.0174 35.971 37.4394V41.1163C35.971 41.5383 35.63 41.8794 35.2079 41.8794ZM27.9525 66.4381H24.2756C23.8535 66.4381 23.5125 66.0971 23.5125 65.675V61.9981C23.5125 61.5761 23.8535 61.235 24.2756 61.235H27.9525C28.3745 61.235 28.7156 61.5761 28.7156 61.9981V65.675C28.7156 66.0913 28.3745 66.4381 27.9525 66.4381Z" fill="#81D4FA"/>
<path d="M35.2078 66.4382H31.5309C31.1089 66.4382 30.7678 66.0971 30.7678 65.6751V61.9982C30.7678 61.5762 31.1089 61.2351 31.5309 61.2351H35.2078C35.6299 61.2351 35.9709 61.5762 35.9709 61.9982V65.6751C35.9709 66.0914 35.6299 66.4382 35.2078 66.4382Z" fill="#0288D1"/>
<path d="M42.4633 66.4382H38.7922C38.3701 66.4382 38.0291 66.0971 38.0291 65.6751V61.9982C38.0291 61.5762 38.3701 61.2351 38.7922 61.2351H42.4691C42.8911 61.2351 43.2322 61.5762 43.2322 61.9982V65.6751C43.2322 66.0914 42.8911 66.4382 42.4633 66.4382Z" fill="#00BFA5"/>
<path d="M49.7244 66.4382H46.0475C45.6255 66.4382 45.2844 66.0971 45.2844 65.6751V61.9982C45.2844 61.5762 45.6255 61.2351 46.0475 61.2351H49.7244C50.1465 61.2351 50.4875 61.5762 50.4875 61.9982V65.6751C50.4875 66.0914 50.1465 66.4382 49.7244 66.4382Z" fill="#FF80AB"/>
</svg>
