<svg width="13" height="23" viewBox="0 0 13 23" fill="none" xmlns="http://www.w3.org/2000/svg">
<path d="M9.4917 21.8792L0.675032 12.8708C0.483365 12.675 0.347921 12.4628 0.268699 12.2344C0.188199 12.0059 0.147949 11.7611 0.147949 11.5C0.147949 11.2389 0.188199 10.9941 0.268699 10.7656C0.347921 10.5371 0.483365 10.325 0.675032 10.1292L9.4917 1.12082C9.84309 0.761789 10.2903 0.582275 10.8334 0.582275C11.3764 0.582275 11.8236 0.761789 12.175 1.12082C12.5264 1.47984 12.7021 1.93679 12.7021 2.49165C12.7021 3.04651 12.5264 3.50346 12.175 3.86248L4.70003 11.5L12.175 19.1375C12.5264 19.4965 12.7021 19.9535 12.7021 20.5083C12.7021 21.0632 12.5264 21.5201 12.175 21.8792C11.8236 22.2382 11.3764 22.4177 10.8334 22.4177C10.2903 22.4177 9.84309 22.2382 9.4917 21.8792V21.8792Z" fill="black"/>
</svg>
